<?xml version="1.0" encoding="UTF-8" standalone="no"?>
<!DOCTYPE svg PUBLIC "-//W3C//DTD SVG 1.1//EN"
 "http://www.w3.org/Graphics/SVG/1.1/DTD/svg11.dtd">
<!-- Generated by graphviz version 2.40.1 (20161225.0304)
 -->
<!-- Title: dependencies Pages: 1 -->
<svg width="1574pt" height="284pt"
 viewBox="0.00 0.00 1574.00 284.00" xmlns="http://www.w3.org/2000/svg" xmlns:xlink="http://www.w3.org/1999/xlink">
<g id="graph0" class="graph" transform="scale(1 1) rotate(0) translate(4 280)">
<title>dependencies</title>
<polygon fill="#ffffff" stroke="transparent" points="-4,4 -4,-280 1570,-280 1570,4 -4,4"/>
<text text-anchor="start" x="762.0091" y="-42.4" font-family="sans-serif" font-weight="bold" font-size="14.00" fill="#000000">Legend</text>
<polygon fill="#ffffb3" stroke="transparent" points="549,-10 549,-30 569,-30 569,-10 549,-10"/>
<text text-anchor="start" x="572.629" y="-15.4" font-family="sans-serif" font-size="14.00" fill="#000000"> &#160;Declarations</text>
<polygon fill="#8dd3c7" stroke="transparent" points="662,-10 662,-30 682,-30 682,-10 662,-10"/>
<text text-anchor="start" x="685.7251" y="-15.4" font-family="sans-serif" font-size="14.00" fill="#000000"> &#160;Module</text>
<polygon fill="#80b1d3" stroke="transparent" points="748,-10 748,-30 768,-30 768,-10 748,-10"/>
<text text-anchor="start" x="771.7812" y="-15.4" font-family="sans-serif" font-size="14.00" fill="#000000"> &#160;Bootstrap</text>
<polygon fill="#fdb462" stroke="transparent" points="845,-10 845,-30 865,-30 865,-10 845,-10"/>
<text text-anchor="start" x="868.6732" y="-15.4" font-family="sans-serif" font-size="14.00" fill="#000000"> &#160;Providers</text>
<polygon fill="#fb8072" stroke="transparent" points="941,-10 941,-30 961,-30 961,-10 941,-10"/>
<text text-anchor="start" x="964.7258" y="-15.4" font-family="sans-serif" font-size="14.00" fill="#000000"> &#160;Exports</text>
<g id="clust1" class="cluster">
<title>cluster_AppModule</title>
<polygon fill="none" stroke="#000000" stroke-dasharray="1,5" points="8,-70 8,-268 450,-268 450,-70 8,-70"/>
</g>
<g id="clust2" class="cluster">
<title>cluster_AppModule_declarations</title>
<polygon fill="none" stroke="#000000" points="320,-78 320,-130 442,-130 442,-78 320,-78"/>
</g>
<g id="clust4" class="cluster">
<title>cluster_AppModule_imports</title>
<polygon fill="none" stroke="#000000" points="168,-78 168,-130 312,-130 312,-78 168,-78"/>
</g>
<g id="clust6" class="cluster">
<title>cluster_AppModule_bootstrap</title>
<polygon fill="none" stroke="#000000" points="178,-208 178,-260 302,-260 302,-208 178,-208"/>
</g>
<g id="clust7" class="cluster">
<title>cluster_AppModule_providers</title>
<polygon fill="none" stroke="#000000" points="16,-78 16,-130 160,-130 160,-78 16,-78"/>
</g>
<g id="clust14" class="cluster">
<title>cluster_LayoutModule</title>
<polygon fill="none" stroke="#000000" stroke-dasharray="1,5" points="458,-70 458,-195 918,-195 918,-70 458,-70"/>
</g>
<g id="clust15" class="cluster">
<title>cluster_LayoutModule_declarations</title>
<polygon fill="none" stroke="#000000" points="634,-78 634,-130 910,-130 910,-78 634,-78"/>
</g>
<g id="clust18" class="cluster">
<title>cluster_LayoutModule_imports</title>
<polygon fill="none" stroke="#000000" points="466,-78 466,-130 626,-130 626,-78 466,-78"/>
</g>
<g id="clust28" class="cluster">
<title>cluster_SearchModule</title>
<polygon fill="none" stroke="#000000" stroke-dasharray="1,5" points="926,-70 926,-195 1244,-195 1244,-70 926,-70"/>
</g>
<g id="clust29" class="cluster">
<title>cluster_SearchModule_declarations</title>
<polygon fill="none" stroke="#000000" points="1100,-78 1100,-130 1236,-130 1236,-78 1100,-78"/>
</g>
<g id="clust31" class="cluster">
<title>cluster_SearchModule_imports</title>
<polygon fill="none" stroke="#000000" points="934,-78 934,-130 1092,-130 1092,-78 934,-78"/>
</g>
<g id="clust41" class="cluster">
<title>cluster_UsersModule</title>
<polygon fill="none" stroke="#000000" stroke-dasharray="1,5" points="1252,-70 1252,-195 1558,-195 1558,-70 1252,-70"/>
</g>
<g id="clust42" class="cluster">
<title>cluster_UsersModule_declarations</title>
<polygon fill="none" stroke="#000000" points="1420,-78 1420,-130 1550,-130 1550,-78 1420,-78"/>
</g>
<g id="clust44" class="cluster">
<title>cluster_UsersModule_imports</title>
<polygon fill="none" stroke="#000000" points="1260,-78 1260,-130 1412,-130 1412,-78 1260,-78"/>
</g>
<!-- AppComponent -->
<g id="node1" class="node">
<title>AppComponent</title>
<polygon fill="#ffffb3" stroke="#000000" points="433.9399,-122 328.0601,-122 328.0601,-86 433.9399,-86 433.9399,-122"/>
<text text-anchor="middle" x="381" y="-99.8" font-family="Times,serif" font-size="14.00" fill="#000000">AppComponent</text>
</g>
<!-- AppModule -->
<g id="node2" class="node">
<title>AppModule</title>
<polygon fill="#8dd3c7" stroke="#000000" points="281.6571,-187 278.6571,-191 257.6571,-191 254.6571,-187 198.3429,-187 198.3429,-151 281.6571,-151 281.6571,-187"/>
<text text-anchor="middle" x="240" y="-164.8" font-family="Times,serif" font-size="14.00" fill="#000000">AppModule</text>
</g>
<!-- AppComponent&#45;&gt;AppModule -->
<g id="edge1" class="edge">
<title>AppComponent&#45;&gt;AppModule</title>
<path fill="none" stroke="#000000" d="M381,-122.2843C381,-143.3211 381,-175 381,-175 381,-175 291.9229,-175 291.9229,-175"/>
<polygon fill="#000000" stroke="#000000" points="291.9229,-171.5001 281.9229,-175 291.9229,-178.5001 291.9229,-171.5001"/>
</g>
<!-- AppComponent  -->
<g id="node4" class="node">
<title>AppComponent </title>
<polygon fill="#80b1d3" stroke="#000000" points="294.439,-252 185.561,-252 185.561,-216 294.439,-216 294.439,-252"/>
<text text-anchor="middle" x="240" y="-229.8" font-family="Times,serif" font-size="14.00" fill="#000000">AppComponent </text>
</g>
<!-- AppModule&#45;&gt;AppComponent  -->
<g id="edge3" class="edge">
<title>AppModule&#45;&gt;AppComponent </title>
<path fill="none" stroke="#000000" stroke-dasharray="1,5" d="M240,-187.1061C240,-187.1061 240,-205.991 240,-205.991"/>
<polygon fill="#000000" stroke="#000000" points="236.5001,-205.9909 240,-215.991 243.5001,-205.991 236.5001,-205.9909"/>
</g>
<!-- AppRoutingModule -->
<g id="node3" class="node">
<title>AppRoutingModule</title>
<polygon fill="#8dd3c7" stroke="#000000" points="304.2744,-122 301.2744,-126 280.2744,-126 277.2744,-122 175.7256,-122 175.7256,-86 304.2744,-86 304.2744,-122"/>
<text text-anchor="middle" x="240" y="-99.8" font-family="Times,serif" font-size="14.00" fill="#000000">AppRoutingModule</text>
</g>
<!-- AppRoutingModule&#45;&gt;AppModule -->
<g id="edge2" class="edge">
<title>AppRoutingModule&#45;&gt;AppModule</title>
<path fill="none" stroke="#000000" d="M240,-122.1061C240,-122.1061 240,-140.991 240,-140.991"/>
<polygon fill="#000000" stroke="#000000" points="236.5001,-140.9909 240,-150.991 243.5001,-140.991 236.5001,-140.9909"/>
</g>
<!-- SwapiService -->
<g id="node5" class="node">
<title>SwapiService</title>
<ellipse fill="#fdb462" stroke="#000000" cx="88" cy="-104" rx="64.261" ry="18"/>
<text text-anchor="middle" x="88" y="-99.8" font-family="Times,serif" font-size="14.00" fill="#000000">SwapiService</text>
</g>
<!-- SwapiService&#45;&gt;AppModule -->
<g id="edge4" class="edge">
<title>SwapiService&#45;&gt;AppModule</title>
<path fill="none" stroke="#000000" d="M88,-122.1061C88,-141.3391 88,-169 88,-169 88,-169 188.063,-169 188.063,-169"/>
<polygon fill="#000000" stroke="#000000" points="188.063,-172.5001 198.063,-169 188.0629,-165.5001 188.063,-172.5001"/>
</g>
<!-- HeaderComponent -->
<g id="node6" class="node">
<title>HeaderComponent</title>
<polygon fill="#ffffb3" stroke="#000000" points="901.7437,-122 780.2563,-122 780.2563,-86 901.7437,-86 901.7437,-122"/>
<text text-anchor="middle" x="841" y="-99.8" font-family="Times,serif" font-size="14.00" fill="#000000">HeaderComponent</text>
</g>
<!-- LayoutModule -->
<g id="node8" class="node">
<title>LayoutModule</title>
<polygon fill="#8dd3c7" stroke="#000000" points="751.7078,-187 748.7078,-191 727.7078,-191 724.7078,-187 652.2922,-187 652.2922,-151 751.7078,-151 751.7078,-187"/>
<text text-anchor="middle" x="702" y="-164.8" font-family="Times,serif" font-size="14.00" fill="#000000">LayoutModule</text>
</g>
<!-- HeaderComponent&#45;&gt;LayoutModule -->
<g id="edge5" class="edge">
<title>HeaderComponent&#45;&gt;LayoutModule</title>
<path fill="none" stroke="#000000" d="M841,-122.1061C841,-141.3391 841,-169 841,-169 841,-169 761.7896,-169 761.7896,-169"/>
<polygon fill="#000000" stroke="#000000" points="761.7896,-165.5001 751.7896,-169 761.7895,-172.5001 761.7896,-165.5001"/>
</g>
<!-- LayoutComponent -->
<g id="node7" class="node">
<title>LayoutComponent</title>
<polygon fill="#ffffb3" stroke="#000000" points="762.4902,-122 641.5098,-122 641.5098,-86 762.4902,-86 762.4902,-122"/>
<text text-anchor="middle" x="702" y="-99.8" font-family="Times,serif" font-size="14.00" fill="#000000">LayoutComponent</text>
</g>
<!-- LayoutComponent&#45;&gt;LayoutModule -->
<g id="edge6" class="edge">
<title>LayoutComponent&#45;&gt;LayoutModule</title>
<path fill="none" stroke="#000000" d="M702,-122.1061C702,-122.1061 702,-140.991 702,-140.991"/>
<polygon fill="#000000" stroke="#000000" points="698.5001,-140.9909 702,-150.991 705.5001,-140.991 698.5001,-140.9909"/>
</g>
<!-- LayoutRoutingModule -->
<g id="node9" class="node">
<title>LayoutRoutingModule</title>
<polygon fill="#8dd3c7" stroke="#000000" points="618.3258,-122 615.3258,-126 594.3258,-126 591.3258,-122 473.6742,-122 473.6742,-86 618.3258,-86 618.3258,-122"/>
<text text-anchor="middle" x="546" y="-99.8" font-family="Times,serif" font-size="14.00" fill="#000000">LayoutRoutingModule</text>
</g>
<!-- LayoutRoutingModule&#45;&gt;LayoutModule -->
<g id="edge7" class="edge">
<title>LayoutRoutingModule&#45;&gt;LayoutModule</title>
<path fill="none" stroke="#000000" d="M546,-122.0225C546,-139.3734 546,-163 546,-163 546,-163 642.2117,-163 642.2117,-163"/>
<polygon fill="#000000" stroke="#000000" points="642.2117,-166.5001 652.2117,-163 642.2117,-159.5001 642.2117,-166.5001"/>
</g>
<!-- SearchComponent -->
<g id="node10" class="node">
<title>SearchComponent</title>
<polygon fill="#ffffb3" stroke="#000000" points="1227.9201,-122 1108.0799,-122 1108.0799,-86 1227.9201,-86 1227.9201,-122"/>
<text text-anchor="middle" x="1168" y="-99.8" font-family="Times,serif" font-size="14.00" fill="#000000">SearchComponent</text>
</g>
<!-- SearchModule -->
<g id="node11" class="node">
<title>SearchModule</title>
<polygon fill="#8dd3c7" stroke="#000000" points="1138.6375,-187 1135.6375,-191 1114.6375,-191 1111.6375,-187 1041.3625,-187 1041.3625,-151 1138.6375,-151 1138.6375,-187"/>
<text text-anchor="middle" x="1090" y="-164.8" font-family="Times,serif" font-size="14.00" fill="#000000">SearchModule</text>
</g>
<!-- SearchComponent&#45;&gt;SearchModule -->
<g id="edge8" class="edge">
<title>SearchComponent&#45;&gt;SearchModule</title>
<path fill="none" stroke="#000000" d="M1123.5544,-122.1061C1123.5544,-122.1061 1123.5544,-140.991 1123.5544,-140.991"/>
<polygon fill="#000000" stroke="#000000" points="1120.0544,-140.9909 1123.5544,-150.991 1127.0544,-140.991 1120.0544,-140.9909"/>
</g>
<!-- SearchRoutingModule -->
<g id="node12" class="node">
<title>SearchRoutingModule</title>
<polygon fill="#8dd3c7" stroke="#000000" points="1084.2548,-122 1081.2548,-126 1060.2548,-126 1057.2548,-122 941.7452,-122 941.7452,-86 1084.2548,-86 1084.2548,-122"/>
<text text-anchor="middle" x="1013" y="-99.8" font-family="Times,serif" font-size="14.00" fill="#000000">SearchRoutingModule</text>
</g>
<!-- SearchRoutingModule&#45;&gt;SearchModule -->
<g id="edge9" class="edge">
<title>SearchRoutingModule&#45;&gt;SearchModule</title>
<path fill="none" stroke="#000000" d="M1062.7795,-122.1061C1062.7795,-122.1061 1062.7795,-140.991 1062.7795,-140.991"/>
<polygon fill="#000000" stroke="#000000" points="1059.2795,-140.9909 1062.7795,-150.991 1066.2795,-140.991 1059.2795,-140.9909"/>
</g>
<!-- UsersComponent -->
<g id="node13" class="node">
<title>UsersComponent</title>
<polygon fill="#ffffb3" stroke="#000000" points="1541.7036,-122 1428.2964,-122 1428.2964,-86 1541.7036,-86 1541.7036,-122"/>
<text text-anchor="middle" x="1485" y="-99.8" font-family="Times,serif" font-size="14.00" fill="#000000">UsersComponent</text>
</g>
<!-- UsersModule -->
<g id="node14" class="node">
<title>UsersModule</title>
<polygon fill="#8dd3c7" stroke="#000000" points="1455.9218,-187 1452.9218,-191 1431.9218,-191 1428.9218,-187 1364.0782,-187 1364.0782,-151 1455.9218,-151 1455.9218,-187"/>
<text text-anchor="middle" x="1410" y="-164.8" font-family="Times,serif" font-size="14.00" fill="#000000">UsersModule</text>
</g>
<!-- UsersComponent&#45;&gt;UsersModule -->
<g id="edge10" class="edge">
<title>UsersComponent&#45;&gt;UsersModule</title>
<path fill="none" stroke="#000000" d="M1442.0543,-122.1061C1442.0543,-122.1061 1442.0543,-140.991 1442.0543,-140.991"/>
<polygon fill="#000000" stroke="#000000" points="1438.5544,-140.9909 1442.0543,-150.991 1445.5544,-140.991 1438.5544,-140.9909"/>
</g>
<!-- UsersRoutingModule -->
<g id="node15" class="node">
<title>UsersRoutingModule</title>
<polygon fill="#8dd3c7" stroke="#000000" points="1404.0394,-122 1401.0394,-126 1380.0394,-126 1377.0394,-122 1267.9606,-122 1267.9606,-86 1404.0394,-86 1404.0394,-122"/>
<text text-anchor="middle" x="1336" y="-99.8" font-family="Times,serif" font-size="14.00" fill="#000000">UsersRoutingModule</text>
</g>
<!-- UsersRoutingModule&#45;&gt;UsersModule -->
<g id="edge11" class="edge">
<title>UsersRoutingModule&#45;&gt;UsersModule</title>
<path fill="none" stroke="#000000" d="M1384.2795,-122.1061C1384.2795,-122.1061 1384.2795,-140.991 1384.2795,-140.991"/>
<polygon fill="#000000" stroke="#000000" points="1380.7795,-140.9909 1384.2795,-150.991 1387.7795,-140.991 1380.7795,-140.9909"/>
</g>
</g>
</svg>
